<svg xmlns="http://www.w3.org/2000/svg" fill="none" viewBox="0 0 359 322">
    <path stroke="#9ECD58" stroke-linecap="round" stroke-miterlimit="10" stroke-width="16" d="M326.497-65.766c23.258 54.101 30.222 115.109 19.764 173.058-6.814 37.737-30.721 122.845-86.451 91.29-26.008-14.725-67.4-95.523-82.124-111.672-27.48-30.123-66.567-6.813-85.503 24.204-25.622 41.958-14.465 86.095-4.738 130.948 4.418 20.372 11.715 41.054 26.69 55.558 14.969 14.491 39.262 20.966 57.164 10.371 22.903-13.529 24.058-49.914 5.969-69.458-18.09-19.544-48.631-23.354-74.053-15.574-21.294 6.523-40.618 20.087-62.822 21.906-42.41 3.471-73.871-33.521-105.348-55.953-23.359-16.64-52.114-29.771-80.045-23.416"></path>
</svg>